<svg xmlns="http://www.w3.org/2000/svg"><symbol viewBox="0 0 24 24" id="facebook" xmlns="http://www.w3.org/2000/svg"><path fill-rule="evenodd" clip-rule="evenodd" d="M19.5 3h-15C3.66 3 3 3.66 3 4.5v15c0 .84.66 1.5 1.5 1.5h15c.84 0 1.5-.66 1.5-1.5v-15c0-.84-.66-1.5-1.5-1.5zm-7.448 11.26H9.8v-2.295h2.252V9.957c0-1.636 1.238-3.014 2.815-3.157H17.4v2.296h-2.252a.837.837 0 0 0-.844.86v2.01h2.814v2.295h-2.814v5.94h-2.252v-5.94zm2.876 5.94h4.393c.498 0 .879-.38.879-.878V4.678a.863.863 0 0 0-.879-.879H4.678a.863.863 0 0 0-.878.879v14.643c0 .497.38.878.878.878h6.736V14.93H9.071v-3.515h2.343V9.95A3.844 3.844 0 0 1 14.9 6.143h3.25v3.514h-2.928c-.176 0-.293.117-.293.293v1.464h2.929v3.515h-2.929V20.2z"/></symbol><symbol viewBox="0 0 24 24" id="facebook-1" xmlns="http://www.w3.org/2000/svg"><path fill-rule="evenodd" clip-rule="evenodd" d="M19.5 3h-15C3.66 3 3 3.66 3 4.5v15c0 .84.66 1.5 1.5 1.5h15c.84 0 1.5-.66 1.5-1.5v-15c0-.84-.66-1.5-1.5-1.5zm-7.448 11.26H9.8v-2.295h2.252V9.957c0-1.636 1.238-3.014 2.815-3.157H17.4v2.296h-2.252a.837.837 0 0 0-.844.86v2.01h2.814v2.295h-2.814v5.94h-2.252v-5.94zm2.876 5.94h4.393c.498 0 .879-.38.879-.878V4.678a.863.863 0 0 0-.879-.879H4.678a.863.863 0 0 0-.878.879v14.643c0 .497.38.878.878.878h6.736V14.93H9.071v-3.515h2.343V9.95A3.844 3.844 0 0 1 14.9 6.143h3.25v3.514h-2.928c-.176 0-.293.117-.293.293v1.464h2.929v3.515h-2.929V20.2z"/></symbol><symbol viewBox="0 0 24 24" id="facebook-2" xmlns="http://www.w3.org/2000/svg"><path fill-rule="evenodd" clip-rule="evenodd" d="M19.5 3h-15C3.66 3 3 3.66 3 4.5v15c0 .84.66 1.5 1.5 1.5h15c.84 0 1.5-.66 1.5-1.5v-15c0-.84-.66-1.5-1.5-1.5zm-7.448 11.26H9.8v-2.295h2.252V9.957c0-1.636 1.239-3.014 2.815-3.157H17.4v2.296h-2.252a.838.838 0 0 0-.844.86v2.01h2.815v2.295h-2.815v5.94h-2.252v-5.94zm2.877 5.94h4.393c.497 0 .878-.38.878-.878V4.678a.863.863 0 0 0-.878-.879H4.678a.863.863 0 0 0-.879.879v14.643c0 .497.38.878.879.878h6.735V14.93H9.072v-3.515h2.342V9.95A3.844 3.844 0 0 1 14.9 6.143h3.251v3.514h-2.929c-.175 0-.292.117-.292.293v1.464h2.928v3.515H14.93V20.2z"/></symbol><symbol viewBox="0 0 24 24" id="instagram" xmlns="http://www.w3.org/2000/svg"><path fill-rule="evenodd" clip-rule="evenodd" d="M16.033 3H7.967A4.973 4.973 0 0 0 3 7.967v8.066A4.973 4.973 0 0 0 7.967 21h8.066A4.973 4.973 0 0 0 21 16.033V7.967A4.973 4.973 0 0 0 16.033 3zM20 16.358A3.646 3.646 0 0 1 16.358 20H7.642A3.646 3.646 0 0 1 4 16.358V7.642A3.646 3.646 0 0 1 7.642 4h8.716A3.646 3.646 0 0 1 20 7.642v8.716zM7.362 12A4.643 4.643 0 0 1 12 7.362 4.643 4.643 0 0 1 16.638 12 4.643 4.643 0 0 1 12 16.638 4.643 4.643 0 0 1 7.362 12zm9.407-6.365a.797.797 0 0 1 .797.2.802.802 0 0 1 0 1.13A.808.808 0 0 1 17 7.2a.806.806 0 0 1-.565-.234.807.807 0 0 1-.235-.566.805.805 0 0 1 .569-.765z"/></symbol><symbol viewBox="0 0 24 24" id="instagram-1" xmlns="http://www.w3.org/2000/svg"><path fill-rule="evenodd" clip-rule="evenodd" d="M16.033 3H7.967A4.973 4.973 0 0 0 3 7.967v8.066A4.973 4.973 0 0 0 7.967 21h8.066A4.973 4.973 0 0 0 21 16.033V7.967A4.973 4.973 0 0 0 16.033 3zM20 16.358A3.646 3.646 0 0 1 16.358 20H7.642A3.646 3.646 0 0 1 4 16.358V7.642A3.646 3.646 0 0 1 7.642 4h8.716A3.646 3.646 0 0 1 20 7.642v8.716zM7.362 12A4.643 4.643 0 0 1 12 7.362 4.643 4.643 0 0 1 16.638 12 4.643 4.643 0 0 1 12 16.638 4.643 4.643 0 0 1 7.362 12zm9.073-6.166a.803.803 0 0 1 1.13 0 .79.79 0 0 1 .235.566c0 .21-.085.417-.234.566A.808.808 0 0 1 17 7.2a.806.806 0 0 1-.759-.549.797.797 0 0 1 .194-.817z"/></symbol><symbol viewBox="0 0 24 24" id="instagram-2" xmlns="http://www.w3.org/2000/svg"><path fill-rule="evenodd" clip-rule="evenodd" d="M16.032 3H7.967A4.973 4.973 0 0 0 3 7.967v8.066A4.973 4.973 0 0 0 7.967 21h8.066A4.973 4.973 0 0 0 21 16.033V7.967A4.973 4.973 0 0 0 16.033 3zM20 16.358A3.646 3.646 0 0 1 16.358 20H7.642A3.646 3.646 0 0 1 4 16.358V7.642A3.646 3.646 0 0 1 7.642 4h8.716A3.646 3.646 0 0 1 20 7.642v8.716zM7.362 12A4.643 4.643 0 0 1 12 7.362 4.644 4.644 0 0 1 16.638 12 4.643 4.643 0 0 1 12 16.638 4.643 4.643 0 0 1 7.362 12zm9.073-6.166a.804.804 0 0 1 1.13 0 .804.804 0 0 1 0 1.132.808.808 0 0 1-.755.21.806.806 0 0 1-.375-.21.807.807 0 0 1-.235-.566c0-.21.086-.417.235-.566z"/></symbol><symbol viewBox="0 0 24 24" id="twitter" xmlns="http://www.w3.org/2000/svg"><path fill-rule="evenodd" clip-rule="evenodd" d="M20.53 6.095a.395.395 0 0 1 .367.094.42.42 0 0 1 .092.375c-.276.906-.825 1.562-1.497 1.906v.093c0 6.031-4.4 10.937-9.777 10.937-3.025 0-5.469-.531-6.569-1.437-.122-.125-.183-.282-.122-.47a.435.435 0 0 1 .397-.28c1.803-.032 2.964-.469 3.85-1-1.711-.219-2.78-1.063-3.33-2.656a.346.346 0 0 1 .122-.406.423.423 0 0 1 .427-.032c.459.313.917.375 1.467.375-1.161-.718-2.23-1.906-2.658-3.374a.456.456 0 0 1 .034-.274.275.275 0 0 1 .119-.133c.153-.093.305-.062.427.032.192.16.393.29.633.39.18.074.384.132.62.172-1.192-1.25-1.925-3.093-.886-5.124l.183-.375.306.312c1.894 2.031 3.636 2.969 6.813 3.593v-.125c0-2.28 1.742-4.155 3.91-4.187.856 0 2.047.625 2.537.907.03 0 .06.03.06 0 .611-.188 1.345-.5 2.2-.875a.32.32 0 0 1 .452.212.378.378 0 0 1-.024.225 4.313 4.313 0 0 1-.764 1.344l.611-.22zm-1.795 2.143l.178-.06c.563-.212.89-.665 1.097-1.057l-1.156.393c-.148.06-.326 0-.385-.151-.06-.151-.03-.332.089-.423.474-.392.83-.815 1.096-1.267-.24.098-.47.19-.69.277-.32.125-.616.236-.881.326a.583.583 0 0 1-.212.031.775.775 0 0 1-.321-.091l-.019-.01c-.348-.194-1.447-.804-2.116-.775-1.778.03-3.2 1.57-3.2 3.44v.846l-.356-.06c-3.26-.604-5.068-1.48-6.965-3.38-.89 2.293.948 3.892 1.57 4.345l.741.543h-.918c-.593 0-1.245-.06-1.838-.332.652 1.388 1.986 2.415 3.112 2.747l-.089.603c-.117 0-.233 0-.35.004-.12.003-.24.011-.361.026a6.55 6.55 0 0 1-1.13-.018 2.97 2.97 0 0 1-.59-.133c.593 1.147 1.63 1.63 3.32 1.63h.89l-.742.543c-.918.725-2.104 1.389-4.15 1.54.979.482 2.787.935 5.484.935 4.621 0 8.892-4.71 8.892-9.96v-.512z"/></symbol><symbol viewBox="0 0 24 24" id="twitter-1" xmlns="http://www.w3.org/2000/svg"><path fill-rule="evenodd" clip-rule="evenodd" d="M20.725 6.095a.357.357 0 0 1 .172.094.42.42 0 0 1 .092.375c-.276.906-.825 1.562-1.497 1.906v.093c0 6.031-4.4 10.937-9.777 10.937-3.025 0-5.469-.531-6.569-1.437-.122-.125-.183-.282-.122-.47a.457.457 0 0 1 .157-.202.409.409 0 0 1 .24-.078c1.803-.032 2.964-.469 3.85-1-1.711-.219-2.78-1.063-3.33-2.656a.346.346 0 0 1 .122-.406.394.394 0 0 1 .251-.075.42.42 0 0 1 .176.043c.323.22.647.317 1.002.354.148.016.302.021.465.021-1.161-.718-2.23-1.906-2.658-3.374a.456.456 0 0 1 .03-.265.282.282 0 0 1 .123-.142c.153-.093.305-.062.427.032.336.28.703.468 1.253.562-1.192-1.25-1.925-3.094-.886-5.125l.183-.375.306.313c1.894 2.031 3.636 2.968 6.813 3.593v-.125c0-2.28 1.742-4.156 3.91-4.187.856 0 2.047.625 2.537.906.011 0 .023.005.033.009.016.006.028.01.028-.009.61-.187 1.344-.5 2.2-.875a.322.322 0 0 1 .46.282c0 .049-.01.1-.033.156a4.314 4.314 0 0 1-.764 1.344l.611-.22a.409.409 0 0 1 .195.001zm-1.99 2.143l.178-.06c.563-.212.89-.665 1.097-1.057l-1.156.393c-.148.06-.326 0-.385-.151-.06-.151-.03-.332.089-.423.474-.392.83-.815 1.096-1.267a30.29 30.29 0 0 1-1.571.603c-.178.06-.355.03-.533-.06-.326-.181-1.453-.815-2.135-.785-1.778.03-3.2 1.57-3.2 3.44v.846l-.356-.06c-3.26-.604-5.068-1.48-6.965-3.38-.89 2.293.948 3.892 1.57 4.345l.741.543h-.918c-.593 0-1.245-.06-1.838-.332.652 1.388 1.986 2.415 3.112 2.747l-.089.603c-.124 0-.247 0-.371.004a3.697 3.697 0 0 0-.34.026c-.623.03-1.186.03-1.72-.15.593 1.146 1.63 1.63 3.32 1.63h.89l-.742.542c-.918.725-2.104 1.389-4.15 1.54.979.482 2.787.935 5.484.935 4.621 0 8.892-4.711 8.892-9.96v-.512z"/></symbol><symbol viewBox="0 0 24 24" id="twitter-2" xmlns="http://www.w3.org/2000/svg"><path fill-rule="evenodd" clip-rule="evenodd" d="M20.53 6.095a.395.395 0 0 1 .367.094c.091.093.122.25.091.375-.274.906-.824 1.562-1.497 1.906v.093c0 6.031-4.399 10.937-9.776 10.937-3.025 0-5.469-.531-6.569-1.437-.122-.125-.183-.282-.122-.47a.436.436 0 0 1 .397-.28c1.803-.032 2.964-.469 3.85-1-1.711-.219-2.78-1.063-3.33-2.656a.346.346 0 0 1 .122-.406.422.422 0 0 1 .427-.032c.459.313.917.375 1.467.375-1.161-.718-2.23-1.906-2.658-3.374a.444.444 0 0 1 .065-.329.247.247 0 0 1 .088-.078c.153-.093.305-.062.427.032.337.28.703.468 1.253.562-1.192-1.25-1.925-3.093-.886-5.124l.183-.375.306.312c1.894 2.031 3.636 2.969 6.813 3.593v-.125c0-2.28 1.741-4.155 3.91-4.187.856 0 2.048.625 2.536.907.03 0 .061.03.061 0 .611-.188 1.345-.5 2.2-.875a.32.32 0 0 1 .367.062c.092.094.122.219.061.375a4.305 4.305 0 0 1-.764 1.344l.611-.22zm-1.794 2.143l.177-.06c.564-.212.89-.665 1.097-1.057l-1.156.393c-.148.06-.326 0-.385-.151-.06-.151-.03-.332.089-.423.474-.392.83-.815 1.096-1.267a30.29 30.29 0 0 1-1.57.603.6.6 0 0 1-.34.013.884.884 0 0 1-.194-.073c-.326-.181-1.452-.815-2.134-.785-1.778.03-3.201 1.57-3.201 3.44v.846l-.356-.06c-3.26-.604-5.068-1.48-6.965-3.38-.89 2.293.948 3.892 1.57 4.345l.742.543h-.92c-.592 0-1.244-.06-1.837-.332.652 1.388 1.986 2.415 3.112 2.747l-.089.603c-.237 0-.474 0-.711.03-.623.03-1.186.03-1.72-.15.594 1.146 1.631 1.63 3.32 1.63h.89l-.741.542c-.92.725-2.105 1.389-4.15 1.54.978.482 2.786.935 5.484.935 4.62 0 8.892-4.71 8.892-9.96v-.512z"/></symbol></svg>